<svg width="16" height="16" viewBox="0 0 16 16" fill="none" xmlns="http://www.w3.org/2000/svg">
<g clip-path="url(#clip0_0_83)">
<path fill-rule="evenodd" clip-rule="evenodd" d="M5.076 2.17114V11.5711C4.564 11.4639 3.9688 11.5047 3.3784 11.7231C2.0496 12.2167 1.5808 13.4175 1.9328 14.4047C2.2848 15.3927 3.3248 15.7919 4.6528 15.2983C5.7808 14.8799 6.52 13.9503 6.5016 13.0751C6.5016 13.0751 6.5016 8.09034 6.5016 5.31034L12.1256 4.02154V9.98634C11.6128 9.87994 11.0176 9.91994 10.4272 10.1391C9.0992 10.6327 8.6304 11.8335 8.9824 12.8207C9.3336 13.8087 10.3736 14.2079 11.7016 13.7151C12.8304 13.2959 13.5688 12.3663 13.5512 11.4919V0.350342L5.076 2.17114V2.17114Z" fill="white"/>
</g>
<defs>
<clipPath id="clip0_0_83">
<rect width="16" height="16" fill="white"/>
</clipPath>
</defs>
</svg>
